<?xml version="1.0" encoding="UTF-8" standalone="no"?>
<svg
   id="Filled"
   viewBox="0 0 24 24"
   width="512"
   height="512"
   version="1.1"
   sodipodi:docname="bug-filled.svg"
   inkscape:version="1.3 (0e150ed6c4, 2023-07-21)"
   xmlns:inkscape="http://www.inkscape.org/namespaces/inkscape"
   xmlns:sodipodi="http://sodipodi.sourceforge.net/DTD/sodipodi-0.dtd"
   xmlns="http://www.w3.org/2000/svg"
   xmlns:svg="http://www.w3.org/2000/svg">
  <defs
     id="defs1" />
  <sodipodi:namedview
     id="namedview1"
     pagecolor="#ffffff"
     bordercolor="#000000"
     borderopacity="0.25"
     inkscape:showpageshadow="2"
     inkscape:pageopacity="0.0"
     inkscape:pagecheckerboard="0"
     inkscape:deskcolor="#d1d1d1"
     inkscape:zoom="1.5878906"
     inkscape:cx="255.68512"
     inkscape:cy="256"
     inkscape:window-width="1920"
     inkscape:window-height="1009"
     inkscape:window-x="-8"
     inkscape:window-y="-8"
     inkscape:window-maximized="1"
     inkscape:current-layer="Filled" />
  <path
     d="M0,19v4a1,1,0,0,0,2,0V19H4.93a8.248,8.248,0,0,0,14.14,0H22v4a1,1,0,0,0,2,0V19a2,2,0,0,0-2-2H19.947a8.2,8.2,0,0,0,.325-2.273A8.37,8.37,0,0,0,20.2,13.7l-.175-.7H23a1,1,0,0,0,0-2H19.522L18.513,7H22a2,2,0,0,0,2-2V1a1,1,0,0,0-2,0V5H18c-.018,0-.032.009-.05.01a6.411,6.411,0,0,0-11.89,0C6.039,5.011,6.021,5,6,5H2V1A1,1,0,0,0,0,1V5A2,2,0,0,0,2,7H5.485L4.472,11H1a1,1,0,0,0,0,2H3.965l-.145.573L3.8,13.7a8.37,8.37,0,0,0-.07,1.032A8.2,8.2,0,0,0,4.053,17H2A2,2,0,0,0,0,19Z"
     id="path1"
     style="fill:#b7d590;fill-opacity:1" />
</svg>
