<?xml version="1.0" encoding="UTF-8" standalone="no"?>
<svg
   version="1.1"
   width="1008.8696"
   height="505.57086"
   style="clip-rule:evenodd;fill-rule:evenodd;image-rendering:optimizeQuality;shape-rendering:geometricPrecision;text-rendering:geometricPrecision"
   id="svg5"
   sodipodi:docname="coati-logo.svg"
   inkscape:version="1.3 (0e150ed6c4, 2023-07-21)"
   xmlns:inkscape="http://www.inkscape.org/namespaces/inkscape"
   xmlns:sodipodi="http://sodipodi.sourceforge.net/DTD/sodipodi-0.dtd"
   xmlns="http://www.w3.org/2000/svg"
   xmlns:svg="http://www.w3.org/2000/svg">
  <defs
     id="defs5" />
  <sodipodi:namedview
     id="namedview5"
     pagecolor="#ffffff"
     bordercolor="#000000"
     borderopacity="0.25"
     inkscape:showpageshadow="2"
     inkscape:pageopacity="0.0"
     inkscape:pagecheckerboard="0"
     inkscape:deskcolor="#d1d1d1"
     inkscape:zoom="1.1228082"
     inkscape:cx="444.4214"
     inkscape:cy="298.80437"
     inkscape:window-width="1920"
     inkscape:window-height="1009"
     inkscape:window-x="-8"
     inkscape:window-y="-8"
     inkscape:window-maximized="1"
     inkscape:current-layer="svg5"
     showgrid="true">
    <inkscape:grid
       id="grid6"
       units="px"
       originx="0"
       originy="0"
       spacingx="1"
       spacingy="1"
       empcolor="#0099e5"
       empopacity="0.30196078"
       color="#0099e5"
       opacity="0.14901961"
       empspacing="4"
       dotted="false"
       gridanglex="30"
       gridanglez="30"
       visible="true" />
  </sodipodi:namedview>
  <g
     id="g1"
     inkscape:label="top-tail"
     transform="translate(0.5,-3.4401484)">
    <path
       style="opacity:0.967"
       fill="#000000"
       d="m -0.5,49.5 c 0,-6 0,-12 0,-18 C 6.83759,10.1511 21.8376,0.98443 44.5,4 c 5.1513,0.91003 9.818,2.91003 14,6 13.413,12.235 24.7463,26.0684 34,41.5 -0.2093,0.586 -0.5426,1.086 -1,1.5 C 65.5819,59.9743 39.7486,67.141 14,74.5 8.04055,66.734 3.20722,58.4007 -0.5,49.5 Z"
       id="path1" />
  </g>
  <g
     id="g2"
     inkscape:label="middle-tail"
     transform="translate(0.5,-3.4401484)">
    <path
       style="opacity:0.972"
       fill="#000000"
       d="m 102.5,79.5 c 1.624,-0.1399 2.79,0.5267 3.5,2 6.906,21.946 8.739,44.279 5.5,67 -28.3255,1 -56.6588,1.333 -85,1 2.8376,-16.395 2.5043,-32.728 -1,-49 25.89,-6.5537 51.5567,-13.5537 77,-21 z"
       id="path2"
       inkscape:label="path2" />
  </g>
  <g
     id="g3"
     inkscape:label="bottom-tail"
     transform="translate(0.5,-3.4401484)">
    <path
       style="opacity:0.968"
       fill="#000000"
       d="m 19.5,178.5 c 29.6667,0 59.3333,0 89,0 -1.749,11.98 -2.249,23.98 -1.5,36 -26.6954,18.862 -53.5287,37.528 -80.5,56 -9.2989,-14.572 -13.9656,-30.572 -14,-48 0.8488,-14.946 3.1821,-29.613 7,-44 z"
       id="path3" />
  </g>
  <g
     id="g4"
     inkscape:label="body"
     transform="translate(0.5,-3.4401484)">
    <path
       style="opacity:0.989"
       fill="#000000"
       d="m 178.5,223.5 c 48.001,-0.167 96.001,0 144,0.5 27.736,1.184 54.069,7.851 79,20 0.522,0.561 0.855,1.228 1,2 -2.114,5.34 -3.614,10.84 -4.5,16.5 -0.5,13.329 -0.667,26.663 -0.5,40 9.667,0 19.333,0 29,0 -0.167,-12.671 0,-25.338 0.5,-38 6.294,-20.4 19.794,-27.567 40.5,-21.5 8.937,4.028 14.437,10.861 16.5,20.5 0.333,13.333 0.667,26.667 1,40 14.521,16.753 22.688,36.086 24.5,58 -33.697,-17.734 -63.864,-13.068 -90.5,14 -8.213,10.285 -13.546,21.952 -16,35 -10.555,-15.86 -25.389,-23.027 -44.5,-21.5 -10.623,14.746 -21.123,29.579 -31.5,44.5 -0.5,14.329 -0.667,28.663 -0.5,43 8.667,0 17.333,0 26,0 0,10.333 0,20.667 0,31 -20.669,0.167 -41.336,0 -62,-0.5 -17.199,-17.531 -34.033,-35.365 -50.5,-53.5 -0.5,-21.664 -0.667,-43.331 -0.5,-65 -26.002,-0.167 -52.002,0 -78,0.5 -11.221,14.888 -22.055,30.055 -32.5,45.5 -0.5,13.996 -0.667,27.996 -0.5,42 8.667,0 17.333,0 26,0 0,10.333 0,20.667 0,31 -20.336,0.167 -40.669,0 -61,-0.5 C 76.3333,489.167 59.1667,471.333 42,453.5 c -0.8333,-53.003 -0.6666,-106.003 0.5,-159 29.8621,-21.028 59.862,-41.862 90,-62.5 15.122,-4.685 30.455,-7.518 46,-8.5 z"
       id="path4" />
  </g>
  <g
     id="g5"
     inkscape:label="snout"
     transform="translate(0.5,-3.4401484)">
    <path
       style="opacity:0.979"
       fill="#000000"
       d="m 511.5,408.5 c 0,26.333 0,52.667 0,79 -18.345,0.333 -36.679,0 -55,-1 -8.167,-11.667 -16.333,-23.333 -24.5,-35 -0.884,-13.708 -0.551,-27.375 1,-41 5.959,-19.454 19.126,-29.787 39.5,-31 19.09,1.691 32.09,11.357 39,29 z"
       id="path5" />
  </g>
  <g
     id="g6"
     inkscape:label="Letters"
     transform="translate(4.277344,-4.7721804)">
    <path
       style="fill:#000000;stroke-width:0.999999"
       d="m 917.3999,402.53205 v 105.9298 h 30.50975 v -60.77541 c 0,-15.03053 8.175,-14.76669 14.76673,-14.76669 6.59172,0 15.61066,-0.002 15.61066,14.9096 0,0 24.80136,0.2022 30.08256,0.2022 0,-7.01797 -0.1727,-10.48108 -0.1727,-15.72208 0,-29.36613 -13.93664,-30.02158 -29.7775,-30.02158 -15.84087,0 -30.99791,-0.32844 -30.99791,15.62098 v -15.86506 z"
       id="path4-6"
       sodipodi:nodetypes="ccczzccszccc"
       inkscape:label="r" />
    <path
       style="fill:#000000;stroke-width:0.999999"
       d="m 796.71751,372.39648 h 30.54977 c 0,0 0,34.97673 0,45.39092 0,7.48966 -0.40025,15.096 14.95858,15.20265 9.7737,-9.64108 15.07192,-15.03004 15.07192,-15.03004 l 14.84266,-15.53303 h 30.37568 l -45.47724,45.47724 c -2.61592,2.61593 -4.91882,3.90422 -4.91882,7.60369 0,1.91021 2.32977,5.18744 4.90658,7.71345 15.35285,15.05027 45.42349,45.78966 45.42349,45.78966 H 872.48959 L 834.19988,470.7213 c -7.13677,0 -7.35285,3.94659 -7.35285,7.59693 0,6.56016 0.12208,30.26566 0.12208,30.26566 h -30.3877"
       id="path3-4"
       sodipodi:nodetypes="cccccccssscccccc"
       inkscape:label="k" />
    <path
       style="fill:#000000;stroke-width:0.999999"
       d="m 660.54617,372.22387 v 30.37568 h 45.73612 v 105.96976 h 30.03051 v -106.3149 h 45.39094 v -29.85793 z"
       id="path2-4"
       inkscape:label="T" />
    <path
       style="fill:#000000;stroke-width:0.999999"
       d="m 615.2315,417.66486 h 30.50973 v -15.13281 c 0,0 0.24408,-30.14362 -30.14362,-30.14362 H 554.4561 c 0,0 -30.44871,-0.24416 -30.44871,30.4487 v 75.35906 c 0,0 0.24408,30.47924 30.47922,30.47924 h 60.74489 c 0,0 30.30432,0.2487 30.30432,-30.30432 v -15.36533 h -30.208 c 0,0 0.008,14.84266 -14.84267,14.84266 -14.78513,0 -30.89345,0 -30.89345,0 0,0 -14.75637,0.57006 -14.75637,-14.75638 v -45.47724 c 0,0 0.0435,-15.05839 15.92134,-15.05839 h 29.03812 c 15.5925,0 15.43671,15.10843 15.43671,15.10843 z"
       id="path1-9"
       sodipodi:nodetypes="cccscscscsccscccczc"
       inkscape:label="C" />
  </g>
</svg>
