<?xml version="1.0" encoding="UTF-8" standalone="no"?>
<svg
   version="1.1"
   width="512"
   height="504.1232"
   style="clip-rule:evenodd;fill-rule:evenodd;image-rendering:optimizeQuality;shape-rendering:geometricPrecision;text-rendering:geometricPrecision"
   id="svg5"
   sodipodi:docname="coati-logo-inside.svg"
   inkscape:version="1.3 (0e150ed6c4, 2023-07-21)"
   xmlns:inkscape="http://www.inkscape.org/namespaces/inkscape"
   xmlns:sodipodi="http://sodipodi.sourceforge.net/DTD/sodipodi-0.dtd"
   xmlns="http://www.w3.org/2000/svg"
   xmlns:svg="http://www.w3.org/2000/svg">
  <defs
     id="defs5" />
  <sodipodi:namedview
     id="namedview5"
     pagecolor="#ffffff"
     bordercolor="#000000"
     borderopacity="0.25"
     inkscape:showpageshadow="2"
     inkscape:pageopacity="0.0"
     inkscape:pagecheckerboard="0"
     inkscape:deskcolor="#d1d1d1"
     inkscape:zoom="0.56140411"
     inkscape:cx="223.54664"
     inkscape:cy="572.67127"
     inkscape:window-width="1920"
     inkscape:window-height="1009"
     inkscape:window-x="-8"
     inkscape:window-y="-8"
     inkscape:window-maximized="1"
     inkscape:current-layer="layer3"
     showgrid="true">
    <inkscape:grid
       id="grid6"
       units="px"
       originx="0"
       originy="4.0556209e-08"
       spacingx="1"
       spacingy="1"
       empcolor="#0099e5"
       empopacity="0.30196078"
       color="#0099e5"
       opacity="0.14901961"
       empspacing="4"
       dotted="false"
       gridanglex="30"
       gridanglez="30"
       visible="true" />
  </sodipodi:namedview>
  <g
     inkscape:groupmode="layer"
     id="layer3"
     inkscape:label="Quati"
     style="opacity:1">
    <g
       id="g1"
       inkscape:label="top-tail"
       transform="translate(0.5,-3.4401484)"
       style="clip-rule:evenodd;fill-rule:evenodd;image-rendering:optimizeQuality;shape-rendering:geometricPrecision;text-rendering:geometricPrecision;fill:#b7d590;fill-opacity:1">
      <path
         style="opacity:1;fill:#b7d590;fill-opacity:1"
         fill="#000000"
         d="m -0.5,49.5 c 0,-6 0,-12 0,-18 C 6.83759,10.1511 21.8376,0.98443 44.5,4 c 5.1513,0.91003 9.818,2.91003 14,6 13.413,12.235 24.7463,26.0684 34,41.5 -0.2093,0.586 -0.5426,1.086 -1,1.5 C 65.5819,59.9743 39.7486,67.141 14,74.5 8.04055,66.734 3.20722,58.4007 -0.5,49.5 Z"
         id="path1" />
    </g>
    <g
       id="g2"
       inkscape:label="middle-tail"
       transform="translate(0.5,-3.4401484)"
       style="clip-rule:evenodd;fill-rule:evenodd;image-rendering:optimizeQuality;shape-rendering:geometricPrecision;text-rendering:geometricPrecision;fill:#b7d590;fill-opacity:1">
      <path
         style="opacity:1;fill:#b7d590;fill-opacity:1"
         fill="#000000"
         d="m 102.5,79.5 c 1.624,-0.1399 2.79,0.5267 3.5,2 6.906,21.946 8.739,44.279 5.5,67 -28.3255,1 -56.6588,1.333 -85,1 2.8376,-16.395 2.5043,-32.728 -1,-49 25.89,-6.5537 51.5567,-13.5537 77,-21 z"
         id="path2"
         inkscape:label="path2" />
    </g>
    <g
       id="g3"
       inkscape:label="bottom-tail"
       transform="translate(0.5,-3.4401484)"
       style="clip-rule:evenodd;fill-rule:evenodd;image-rendering:optimizeQuality;shape-rendering:geometricPrecision;text-rendering:geometricPrecision;fill:#b7d590;fill-opacity:1">
      <path
         style="opacity:1;fill:#b7d590;fill-opacity:1"
         fill="#000000"
         d="m 19.5,178.5 c 29.6667,0 59.3333,0 89,0 -1.749,11.98 -2.249,23.98 -1.5,36 -26.6954,18.862 -53.5287,37.528 -80.5,56 -9.2989,-14.572 -13.9656,-30.572 -14,-48 0.8488,-14.946 3.1821,-29.613 7,-44 z"
         id="path3" />
    </g>
    <g
       id="g4"
       inkscape:label="body"
       transform="translate(0.5,-3.4401484)"
       style="clip-rule:evenodd;fill-rule:evenodd;image-rendering:optimizeQuality;shape-rendering:geometricPrecision;text-rendering:geometricPrecision;fill:#b7d590;fill-opacity:1">
      <path
         id="path4-6"
         style="clip-rule:evenodd;fill:#b7d590;fill-opacity:1;fill-rule:evenodd;stroke-width:0.639999;image-rendering:optimizeQuality;shape-rendering:geometricPrecision;text-rendering:geometricPrecision"
         inkscape:label="CTkr"
         d="m 178.5,223.5007 c -15.54498,0.98199 -30.87802,3.815 -46,8.5 -30.13797,20.63797 -60.13793,41.47202 -90,62.5 -1.166599,52.99694 -1.333299,105.99705 -0.5,159 17.166683,17.83298 34.333317,35.66701 51.5,53.5 20.33098,0.49999 40.66402,0.667 61,0.5 v -31 h -26 c -0.167,-14.00399 0,-28.00402 0.5,-42 10.44499,-15.44499 21.27901,-30.61202 32.5,-45.5 25.99797,-0.5 51.99803,-0.667 78,-0.5 -0.167,21.66897 0,43.33602 0.5,65 16.46698,18.13498 33.30102,35.96901 50.5,53.5 20.66398,0.49999 41.33102,0.667 62,0.5 v -31 h -26 c -0.167,-14.33699 0,-28.67102 0.5,-43 10.37699,-14.92099 20.87701,-29.75402 31.5,-44.5 19.11098,-1.527 33.94501,5.64001 44.5,21.5 2.454,-13.04799 7.78701,-24.71502 16,-35 26.63597,-27.06798 56.80303,-31.73399 90.5,-14 -1.812,-21.91398 -9.97901,-41.24702 -24.5,-58 -0.333,-13.33299 -0.667,-26.66702 -1,-40 -2.063,-9.639 -7.56301,-16.47201 -16.5,-20.5 -20.70598,-6.067 -34.20601,1.10002 -40.5,21.5 -0.5,12.66198 -0.667,25.32901 -0.5,38 h -29 c -0.167,-13.33699 0,-26.67102 0.5,-40 0.886,-5.66 2.386,-11.16001 4.5,-16.5 -0.145,-0.772 -0.478,-1.43901 -1,-2 -24.93098,-12.14899 -51.26403,-18.81601 -79,-20 -47.99895,-0.5 -95.99905,-0.667 -144,-0.5 z m -18.42383,61 77.54102,0.11132 v 19.10938 h -29.05078 v 68.04101 H 189.34766 V 303.9421 h -29.27149 z m -67.898436,0.10546 h 39.130856 c 19.44809,0 19.29297,19.29297 19.29297,19.29297 v 9.6836 h -19.52734 c 0,0 0.10027,-9.66797 -9.87891,-9.66797 h -18.58398 c -10.1618,0 -10.189455,9.63672 -10.189455,9.63672 v 29.10547 c 0,9.8089 9.443355,9.44335 9.443355,9.44335 h 19.77149 c 9.50399,0 9.5,-9.49804 9.5,-9.49804 h 19.33203 v 9.83398 c 0,19.5539 -19.39453,19.39453 -19.39453,19.39453 H 92.197266 c -19.350451,0 -19.50586,-19.50781 -19.50586,-19.50781 v -48.22851 c 0,-19.6434 19.486328,-19.48829 19.486328,-19.48829 z m 155.048826,0.006 h 19.55078 v 29.05078 c 0,4.79338 -0.25541,9.66022 9.57422,9.72852 6.25516,-6.17027 9.64649,-9.61914 9.64649,-9.61914 l 9.49804,-9.94141 h 19.44141 l -29.10547,29.10547 c -1.67418,1.6742 -3.14844,2.49953 -3.14844,4.86719 0,1.22254 1.49147,3.3189 3.14063,4.93555 9.8258,9.63215 29.07031,29.30664 29.07031,29.30664 H 295.7207 L 271.21484,347.5399 c -4.56753,0 -4.70507,2.52511 -4.70507,4.86133 0,4.19848 0.0781,19.37109 0.0781,19.37109 h -19.44922 z m 96.44922,18.97461 v 10.15235 c 0,-10.20761 9.70171,-9.9961 19.83984,-9.9961 10.13812,0 19.05665,0.4186 19.05665,19.21289 0,3.35423 0.11132,5.57102 0.11132,10.0625 -3.37995,0 -19.2539,-0.1289 -19.2539,-0.1289 0,-9.54341 -5.77154,-9.54297 -9.99024,-9.54297 -4.21869,0 -9.45117,-0.16835 -9.45117,9.45117 v 38.89648 h -19.52539 v -67.79492 z" />
    </g>
    <g
       id="g5"
       inkscape:label="snout"
       transform="translate(0.5,-3.4401484)"
       style="clip-rule:evenodd;fill-rule:evenodd;image-rendering:optimizeQuality;shape-rendering:geometricPrecision;text-rendering:geometricPrecision;fill:#b7d590;fill-opacity:1">
      <path
         style="opacity:1;fill:#b7d590;fill-opacity:1"
         fill="#000000"
         d="m 511.5,408.5 c 0,26.333 0,52.667 0,79 -18.345,0.333 -36.679,0 -55,-1 -8.167,-11.667 -16.333,-23.333 -24.5,-35 -0.884,-13.708 -0.551,-27.375 1,-41 5.959,-19.454 19.126,-29.787 39.5,-31 19.09,1.691 32.09,11.357 39,29 z"
         id="path5" />
    </g>
    <path
       style="fill:#b7d590;fill-opacity:1;stroke-width:1.78125"
       d="m 109.27565,502.7695 -15.411721,-0.59115 -25.130326,-26.48318 -25.130324,-26.48319 0.463962,-78.98011 0.463962,-78.98011 41.85933,-29.15965 c 23.022627,-16.03781 45.110677,-30.6391 49.084547,-32.44733 16.14961,-7.34853 34.43982,-8.77001 112.84377,-8.77001 91.10277,0 104.0889,1.36265 138.78544,14.56295 13.10771,4.98682 14.69762,6.06823 13.73628,9.34298 -1.55856,5.30913 -4.40776,34.10197 -4.46459,45.11743 l -0.0483,9.35155 h 16.03124 16.03123 l 0.009,-20.03904 c 0.008,-17.75888 0.47586,-20.81005 4.11101,-26.81494 5.63682,-9.31148 12.85103,-13.68304 22.59859,-13.69395 9.5723,-0.0107 18.86023,4.35402 23.92024,11.24096 3.12459,4.25276 3.83171,8.4829 4.62102,27.64381 0.86018,20.88144 1.29044,23.09992 5.58981,28.82262 6.34614,8.44704 12.9833,22.05069 16.43586,33.68723 4.8273,16.27003 4.73131,16.38886 -9.15291,11.33177 -16.49147,-6.00674 -37.5317,-5.36234 -52.48994,1.60761 -18.1154,8.44106 -33.7168,25.94768 -38.90111,43.65165 l -2.19175,7.48469 -3.43648,-4.36876 c -6.1242,-7.78564 -18.36445,-13.62228 -30.41085,-14.5011 l -11.06191,-0.80699 -15.58592,22.29854 -15.58592,22.29854 v 22.35983 22.35985 h 12.46873 12.46874 v 15.35679 15.3568 l -29.8359,-1.16361 -29.83591,-1.16362 -25.38279,-26.15743 -25.38278,-26.15742 v -32.6004 -32.6004 l -40.43164,0.47875 -40.43163,0.47875 -15.58097,21.63084 -15.58096,21.63082 -1.24762,22.45507 -1.24763,22.45506 h 13.61965 13.61964 v 15.1406 15.14061 l -14.6953,-0.36629 c -8.08241,-0.20144 -21.63057,-0.63229 -30.10701,-0.95742 z m 36.14192,-139.09566 c 4.78083,-4.27167 5.77407,-6.5913 6.48304,-15.14061 l 0.83725,-10.09609 h -10.62215 c -9.60172,0 -10.81705,0.42779 -12.65112,4.45312 -1.93222,4.24077 -2.74979,4.45312 -17.1451,4.45312 -18.479904,0 -18.803964,-0.39705 -18.803964,-23.03912 0,-21.15068 1.794602,-23.27333 19.676574,-23.27333 12.07709,0 12.66629,0.20159 15.58592,5.33248 2.81656,4.94976 3.76945,5.33329 13.27652,5.34375 l 10.24217,0.0113 v -7.18221 c 0,-3.95021 -1.17349,-9.99077 -2.60776,-13.42346 -3.86206,-9.24321 -10.84497,-11.45881 -36.07717,-11.44686 -25.877288,0.0122 -33.35034,1.86808 -38.056855,9.45092 -3.225002,5.19592 -3.482645,8.38584 -3.024527,37.447 l 0.500774,31.76726 5.817159,5.19364 5.817158,5.19365 h 27.553141 27.55314 z m 63.87908,-28.7992 v -33.84371 h 15.14061 15.14061 v -10.68749 -10.68749 h -40.07808 -40.07808 v 10.68749 10.68749 h 15.1406 15.14061 v 33.84371 33.84372 h 9.79687 9.79686 z m 58.78119,22.26561 c 0,-6.36797 0.62433,-11.57812 1.3874,-11.57812 0.76307,0 6.55123,5.21015 12.86258,11.57812 l 11.4752,11.57811 h 11.59439 11.59439 l -16.85149,-16.92186 -16.8515,-16.92186 16.44136,-16.51001 c 9.04276,-9.08051 16.44137,-17.09612 16.44137,-17.81248 0,-0.71636 -4.58574,-1.30247 -10.19052,-1.30247 -10.01519,0 -10.36815,0.17576 -20.51314,10.21491 -8.6134,8.52352 -10.834,9.89312 -13.41102,8.27155 -2.53838,-1.59726 -3.17879,-5.16119 -3.59602,-20.01177 l -0.50763,-18.06842 h -10.62517 -10.62518 v 44.53121 44.5312 h 10.68749 10.68749 z m 76.59367,-7.89966 c 0,-24.56897 1.47892,-29.04248 9.35041,-28.28356 3.97222,0.38297 6.34226,1.8166 7.54852,4.56606 1.53659,3.50242 3.07892,4.00781 12.23092,4.00781 h 10.47262 l -0.73865,-11.60033 c -0.48868,-7.67468 -1.74623,-12.60791 -3.71606,-14.57773 -3.6831,-3.68311 -22.02237,-5.30152 -29.70938,-2.62181 -3.2809,1.14372 -5.43838,1.22594 -5.43838,0.20724 0,-0.92872 -4.80937,-1.68859 -10.68749,-1.68859 h -10.68749 v 34.73434 34.73434 h 10.68749 10.68749 z"
       id="path6" />
  </g>
</svg>
